<svg xmlns="http://www.w3.org/2000/svg" version="1.1" xmlns:xlink="http://www.w3.org/1999/xlink" xmlns:svgjs="http://svgjs.dev/svgjs" width="100%" height="100%" viewBox="0 0 1000 600"><rect width="1000" height="600" x="0" y="0" fill="#44464f"/><g><rect width="333.3333333333333" height="333.3333333333333" rx="13.333333333333334" ry="13.333333333333334" y="159.3167862921022" fill="#fbeaeb" transform="matrix(0.9117793387151168,0,0,0.9117793387151168,0,2.7750199871203876)" x="137.09457397460938"/><path d="M276.72246412238917 400.9834462092771L272.6684099956442 400.9834462092771L272.6684099956442 250.98344351971372L334.8540750354538 250.98344351971372L334.8540750354538 255.03749764645866L276.72246412238917 255.03749764645866L276.72246412238917 320.00812160811915L321.9163544744503 320.00812160811915L321.9163544744503 324.0621757348641L276.72246412238917 324.0621757348641L276.72246412238917 400.9834462092771Z " fill="#fbeaeb" transform="matrix(0.9117793387151168,0,0,0.9117793387151168,0,2.7750199871203876)"/><path d="M557.7607768528617 398.9662824600622L553.7612406662622 398.9662824600622L553.7612406662622 250.9834435558823L615.1106479111443 250.9834435558823L615.1106479111443 254.98297974248177L557.7607768528617 254.98297974248177L557.7607768528617 319.07989445468L602.3469106895616 319.07989445468L602.3469106895616 323.0794306412795L557.7607768528617 323.0794306412795L557.7607768528617 398.9662824600622ZM661.9573891576613 400.70521123684455L661.9573891576613 400.70521123684455Q651.1760307416106 400.70521123684455 645.0550014473367 397.8533680429214Q638.8991935775271 394.9667462734627 636.1516861102109 390.202081425079Q633.4041786428947 385.43741657669534 632.6390499811105 379.5598373111709Q631.9086998948619 373.68225804564645 631.9086998948619 367.909014506729L631.9086998948619 367.909014506729L631.9086998948619 305.8292571755983Q631.9086998948619 300.05601363668086 632.6390499811105 294.2827700977633Q633.4041786428947 288.5443051343815 636.2908004123535 283.64052598385524Q639.1426436062766 278.7715254088646 645.4027872026932 275.8849036394059Q651.6629307991096 272.99828186994716 662.9311892726595 272.99828186994716L662.9311892726595 272.99828186994716Q676.7035051847758 272.99828186994716 682.9636487811924 278.0063967470803Q689.2237923776089 283.0145116242136 691.1018354565339 290.5266839399135Q692.9798785354589 298.03885625561327 692.9798785354589 305.8292571755983L692.9798785354589 305.8292571755983L692.9798785354589 367.909014506729Q692.9798785354589 375.66463685117833 691.1018354565339 383.17680916687823Q689.2237923776089 390.688981482578 682.7201987524428 395.6970963597113Q676.2166051272768 400.70521123684455 661.9573891576613 400.70521123684455ZM661.9573891576613 396.7056750502451L661.9573891576613 396.7056750502451Q674.9645764079935 396.7056750502451 680.5987056447683 392.08012450400395Q686.2328348815432 387.4545739577628 687.6239779029692 380.5684160017047Q688.9803423488594 373.68225804564645 688.9803423488594 367.17866442048035L688.9803423488594 367.17866442048035L688.9803423488594 306.55960726184685Q688.9803423488594 299.81256360793134 687.6239779029692 293.03074137848Q686.2328348815432 286.2836977245645 680.8421556735179 281.65814717832336Q675.4514764654925 277.03259663208223 662.9311892726595 277.03259663208223L662.9311892726595 277.03259663208223Q652.914959518393 277.03259663208223 647.2808302816181 279.7801040993984Q641.6467010448432 282.52761156671454 639.2817579084192 286.90971208420615Q636.9168147719952 291.29181260169764 636.3951361389604 296.4390417809735Q635.9082360814614 301.5514923847137 635.9082360814614 306.55960726184685L635.9082360814614 306.55960726184685L635.9082360814614 367.17866442048035Q635.9082360814614 372.1867792976136 636.3951361389604 377.2992299013538Q636.9168147719952 382.44645908062955 639.1426436062766 386.82855959812116Q641.4032510160937 391.21066011561277 646.7939302241191 393.9581675829289Q652.1846094321444 396.7056750502451 661.9573891576613 396.7056750502451ZM752.5903570035586 400.70521123684455L752.5903570035586 400.70521123684455Q741.8089985875079 400.70521123684455 735.6879692932339 397.8533680429214Q729.5669399989599 394.9667462734627 726.7846539561082 390.202081425079Q724.037146488792 385.43741657669534 723.3067964025433 379.5598373111709Q722.5416677407591 373.68225804564645 722.5416677407591 367.909014506729L722.5416677407591 367.909014506729L722.5416677407591 305.8292571755983Q722.5416677407591 300.05601363668086 723.3067964025433 294.2827700977633Q724.037146488792 288.5443051343815 726.7846539561082 283.64052598385524Q729.5669399989599 278.7715254088646 735.6879692932339 275.8849036394059Q741.8089985875079 272.99828186994716 752.5903570035586 272.99828186994716L752.5903570035586 272.99828186994716Q763.093486815324 272.99828186994716 769.2492946851337 275.8849036394059Q775.3703239794075 278.7715254088646 778.1178314467238 283.64052598385524Q780.9001174895756 288.5443051343815 781.6304675758241 294.2827700977633Q782.3955962376084 300.05601363668086 782.3955962376084 305.8292571755983L782.3955962376084 305.8292571755983L782.3955962376084 316.8192870448629L778.3960600510089 316.8192870448629L778.3960600510089 306.55960726184685Q778.3960600510089 299.81256360793134 777.004917029583 293.03074137848Q775.6137740081572 286.2836977245645 770.2578733756674 281.65814717832336Q764.8671941676421 277.03259663208223 752.5903570035586 277.03259663208223L752.5903570035586 277.03259663208223Q740.313519839475 277.03259663208223 734.8185049048427 281.65814717832336Q729.2887113946747 286.2836977245645 727.9323469487845 293.03074137848Q726.5412039273585 299.81256360793134 726.5412039273585 306.55960726184685L726.5412039273585 306.55960726184685L726.5412039273585 367.17866442048035Q726.5412039273585 373.68225804564645 727.9323469487845 380.5684160017047Q729.2887113946747 387.4545739577628 734.8185049048427 392.08012450400395Q740.313519839475 396.7056750502451 752.5903570035586 396.7056750502451L752.5903570035586 396.7056750502451Q764.8671941676421 396.7056750502451 770.2578733756674 392.08012450400395Q775.6137740081572 387.4545739577628 777.004917029583 380.5684160017047Q778.3960600510089 373.68225804564645 778.3960600510089 367.17866442048035L778.3960600510089 367.17866442048035L778.3960600510089 357.1624346662139L782.3955962376084 357.1624346662139L782.3955962376084 367.909014506729Q782.3955962376084 375.66463685117833 780.9001174895756 383.17680916687823Q779.3698601660071 390.688981482578 773.1097165695905 395.6970963597113Q766.849572973174 400.70521123684455 752.5903570035586 400.70521123684455ZM840.9974960151744 400.98343984112967L840.9974960151744 400.98343984112967Q830.4595876278731 400.98343984112967 824.3385583335992 398.0968180716709Q818.1827504637896 395.21019630221224 815.4352429964734 390.3411957272216Q812.6877355291573 385.43741657669534 811.9226068673731 379.6989516133135Q811.1922567811243 373.92570807439597 811.1922567811243 368.15246453547854L811.1922567811243 368.15246453547854L811.1922567811243 275.01543925101464L815.1917929677239 275.01543925101464L815.1917929677239 365.92663570119703Q815.1917929677239 373.1605794126117 816.4438216870072 380.4293016995621Q817.6958504062904 387.69802398651234 823.0865296143159 392.32357453275347Q828.4772088223413 396.9491250789946 840.9974960151744 396.9491250789946L840.9974960151744 396.9491250789946Q854.7698119272907 396.9491250789946 861.0299555237073 390.06296712293636Q867.2900991201238 383.17680916687823 868.2638992351219 372.43022932636313L868.2638992351219 372.43022932636313L868.2638992351219 275.01543925101464L872.2982139972571 275.01543925101464L872.2982139972571 398.9662824600622L868.7855778681567 398.9662824600622L868.2638992351219 386.445995267229Q865.5163917678058 392.21923880614656 859.1519124447823 396.60133932363806Q852.7526545462231 400.98343984112967 840.9974960151744 400.98343984112967ZM929.3698564512545 400.461761208095L929.3698564512545 400.461761208095Q916.3626692009223 400.461761208095 908.0853682234382 394.20161761167844Q899.8428458214898 387.94147401526186 899.8428458214898 374.1691581031455L899.8428458214898 374.1691581031455L899.8428458214898 357.40588469496345L903.8423820080892 357.40588469496345L903.8423820080892 374.1691581031455Q903.8423820080892 385.1939665479457 910.971989992897 390.82809578472063Q918.1015979777046 396.46222502149556 929.3698564512545 396.46222502149556L929.3698564512545 396.46222502149556Q941.159793557839 396.46222502149556 948.2894015426466 391.4541101443623Q955.4190095274544 386.445995267229 955.4190095274544 374.93428676492977L955.4190095274544 374.93428676492977L955.4190095274544 365.4049570681624Q955.4190095274544 355.9104059469306 951.4194733408549 350.5197267389052Q947.4199371542554 345.1290475308799 941.2641292844459 341.7555257039221Q935.1430999901719 338.3820038769643 928.1178277319711 335.356267805363L928.1178277319711 335.356267805363Q920.3622053875217 331.8436316762626 913.8586117623557 328.36577412269787Q907.3550181371896 324.85313799359744 903.4598176771971 319.7059088143217Q899.5646172172046 314.5934582105815 899.5646172172046 306.31615723309733L899.5646172172046 306.31615723309733L899.5646172172046 297.79540622686375Q899.5646172172046 287.2922764150982 907.598468165939 280.2670041568974Q915.5975405391381 273.2765104742323 929.8915350842892 273.2765104742323L929.8915350842892 273.2765104742323Q942.8987223346212 273.2765104742323 951.2803590387123 279.1540897397567Q959.6619957428034 285.0316690052812 959.6619957428034 298.560534888648L959.6619957428034 298.560534888648L959.6619957428034 314.836908239331L955.6624595562039 314.836908239331L955.6624595562039 300.05601363668086Q955.6624595562039 288.02262650134685 949.0197516288952 282.66672586885716Q942.4118222771222 277.27604666083175 929.8915350842892 277.27604666083175L929.8915350842892 277.27604666083175Q917.371247891456 277.27604666083175 910.4850899353979 283.53619025724834Q903.5989319793397 289.7963338536648 903.5989319793397 300.05601363668086L903.5989319793397 300.05601363668086L903.5989319793397 304.57722845631497Q903.5989319793397 312.81975085826343 907.8419181946887 317.8278657353967Q912.0849044100377 322.83598061252985 918.1015979777046 325.96605241073814Q924.1182915453717 329.09612420894643 929.3698564512545 331.60018164751307L929.3698564512545 331.60018164751307Q936.8820287669542 334.86936774786386 943.7681867230125 338.72978963232083Q950.6543446790706 342.6249900923133 955.0364451965622 348.74601938658725Q959.4185457140538 354.9018272563968 959.4185457140538 365.4049570681624L959.4185457140538 365.4049570681624L959.4185457140538 374.93428676492977Q959.4185457140538 384.70706649044666 955.1755594987048 390.202081425079Q950.8977947078201 395.6970963597113 944.1507510539046 398.0968180716709Q937.403707399989 400.461761208095 929.3698564512545 400.461761208095Z " fill="#fbeaeb" transform="matrix(0.9117793387151168,0,0,0.9117793387151168,0,2.7750199871203876)"/></g></svg>